<svg width="254" height="138" viewBox="0 0 254 138" fill="none" xmlns="http://www.w3.org/2000/svg">
<path fill-rule="evenodd" clip-rule="evenodd" d="M233.613 82.8467L232.992 83.4903C232.473 82.9869 231.967 82.7356 231.472 82.7356C231.159 82.7356 230.889 82.8395 230.664 83.0476C230.441 83.2543 230.329 83.4964 230.329 83.7745C230.329 84.0176 230.421 84.2511 230.606 84.4723C230.79 84.6975 231.177 84.9636 231.771 85.2671C232.491 85.6408 232.981 86.0002 233.24 86.3461C233.492 86.6969 233.621 87.0912 233.621 87.5291C233.621 88.1473 233.403 88.6685 232.969 89.0981C232.536 89.5264 231.993 89.7413 231.34 89.7413C230.909 89.7413 230.492 89.6471 230.098 89.4585C229.704 89.2699 229.377 89.0086 229.117 88.6757L229.727 87.9851C230.221 88.5426 230.745 88.821 231.301 88.821C231.688 88.821 232.019 88.6976 232.293 88.4483C232.565 88.1994 232.701 87.9076 232.701 87.5702C232.701 87.2932 232.612 87.0477 232.429 86.8299C232.25 86.6184 231.844 86.3499 231.211 86.0279C230.533 85.6785 230.069 85.3326 229.824 84.99C229.58 84.6492 229.457 84.2597 229.457 83.8228C229.457 83.2506 229.652 82.7753 230.044 82.3978C230.433 82.0193 230.924 81.8293 231.522 81.8293C232.215 81.8293 232.912 82.1681 233.613 82.8467Z" fill="#1B1918" stroke="#1B1918" stroke-width="0.65" stroke-linecap="round" stroke-linejoin="round"/>
<path fill-rule="evenodd" clip-rule="evenodd" d="M202.272 85.025C202.142 84.5086 201.952 84.0961 201.707 83.7875C201.459 83.4789 201.134 83.23 200.727 83.04C200.321 82.8515 199.893 82.7568 199.446 82.7568C198.707 82.7568 198.073 82.9941 197.542 83.4693C197.155 83.8153 196.861 84.3344 196.663 85.025H202.272ZM202.272 87.0521L203.087 87.4804C202.82 88.0053 202.51 88.4302 202.161 88.7532C201.809 89.0758 201.414 89.3217 200.978 89.4883C200.537 89.6577 200.041 89.7413 199.489 89.7413C198.261 89.7413 197.302 89.3385 196.609 88.5341C195.917 87.7297 195.569 86.82 195.569 85.8064C195.569 84.8518 195.862 84.0015 196.449 83.254C197.193 82.3046 198.187 81.8293 199.432 81.8293C200.715 81.8293 201.741 82.3166 202.506 83.2893C203.05 83.9761 203.328 84.834 203.338 85.862H196.566C196.586 86.7353 196.864 87.4526 197.403 88.0115C197.944 88.5704 198.61 88.8499 199.404 88.8499C199.789 88.8499 200.16 88.782 200.524 88.6503C200.886 88.5173 201.192 88.3393 201.447 88.1205C201.7 87.899 201.977 87.5435 202.272 87.0521Z" fill="#1B1918" stroke="#1B1918" stroke-width="0.65" stroke-linecap="round" stroke-linejoin="round"/>
<path fill-rule="evenodd" clip-rule="evenodd" d="M205.501 78.9261C205.724 78.9261 205.91 79.0036 206.066 79.1607C206.22 79.3167 206.297 79.5056 206.297 79.7281C206.297 79.9445 206.22 80.131 206.066 80.2881C205.91 80.4455 205.724 80.5229 205.501 80.5229C205.279 80.5229 205.092 80.4455 204.939 80.2881C204.783 80.131 204.705 79.9445 204.705 79.7281C204.705 79.5056 204.783 79.3167 204.939 79.1607C205.092 79.0036 205.279 78.9261 205.501 78.9261ZM205.023 82.0241H206.007V90.6822C206.007 91.3138 205.891 91.7733 205.664 92.0613C205.435 92.3503 205.124 92.4944 204.726 92.4944C204.401 92.4944 204.032 92.4158 203.62 92.2584V91.3875C203.878 91.5206 204.113 91.5885 204.319 91.5885C204.582 91.5885 204.778 91.4794 204.906 91.2631C204.986 91.1252 205.023 90.8372 205.023 90.398V82.0241Z" fill="#1B1918" stroke="#1B1918" stroke-width="0.65" stroke-linecap="round" stroke-linejoin="round"/>
<path fill-rule="evenodd" clip-rule="evenodd" d="M207.872 82.0231H208.842V89.548H207.872V82.0231ZM208.353 78.9265C208.574 78.9265 208.762 79.0036 208.918 79.161C209.074 79.317 209.151 79.5056 209.151 79.7285C209.151 79.9448 209.074 80.131 208.918 80.2884C208.762 80.4455 208.574 80.5229 208.353 80.5229C208.138 80.5229 207.951 80.4455 207.795 80.2884C207.639 80.131 207.562 79.9448 207.562 79.7285C207.562 79.5056 207.639 79.317 207.795 79.161C207.951 79.0036 208.138 78.9265 208.353 78.9265Z" fill="#1B1918" stroke="#1B1918" stroke-width="0.65" stroke-linecap="round" stroke-linejoin="round"/>
<path fill-rule="evenodd" clip-rule="evenodd" d="M214.496 82.764C213.957 82.764 213.459 82.896 213.003 83.1607C212.547 83.4258 212.185 83.7971 211.913 84.2772C211.645 84.7551 211.509 85.2619 211.509 85.7965C211.509 86.3252 211.647 86.832 211.918 87.3158C212.19 87.7996 212.554 88.1771 213.011 88.4456C213.47 88.7154 213.962 88.8495 214.488 88.8495C215.018 88.8495 215.519 88.7165 215.993 88.4494C216.468 88.1819 216.832 87.8202 217.088 87.3641C217.344 86.9095 217.473 86.3955 217.473 85.8232C217.473 84.9547 217.185 84.2264 216.612 83.6421C216.038 83.0555 215.331 82.764 214.496 82.764ZM218.363 79.1195V89.5476H217.409V88.2546C217.004 88.748 216.548 89.1194 216.043 89.3686C215.54 89.6179 214.987 89.7424 214.387 89.7424C213.321 89.7424 212.411 89.3553 211.658 88.5834C210.904 87.8119 210.529 86.8718 210.529 85.7653C210.529 84.6814 210.909 83.7546 211.67 82.9855C212.431 82.2151 213.345 81.8304 214.416 81.8304C215.031 81.8304 215.592 81.962 216.092 82.2247C216.591 82.487 217.031 82.8813 217.409 83.4062V79.1195H218.363Z" fill="#1B1918" stroke="#1B1918" stroke-width="0.65" stroke-linecap="round" stroke-linejoin="round"/>
<path fill-rule="evenodd" clip-rule="evenodd" d="M224.113 82.7781C223.31 82.7781 222.618 83.0747 222.039 83.6696C221.46 84.2648 221.171 84.9835 221.171 85.8277C221.171 86.3718 221.304 86.879 221.567 87.348C221.831 87.8188 222.187 88.1829 222.636 88.438C223.085 88.6945 223.577 88.8214 224.113 88.8214C224.652 88.8214 225.144 88.6945 225.592 88.438C226.041 88.1829 226.398 87.8188 226.662 87.348C226.924 86.879 227.057 86.3718 227.057 85.8277C227.057 84.9835 226.766 84.2648 226.185 83.6696C225.603 83.0747 224.914 82.7781 224.113 82.7781ZM224.118 81.83C225.278 81.83 226.237 82.2497 227.001 83.0891C227.692 83.8547 228.04 84.7606 228.04 85.8071C228.04 86.8584 227.673 87.7763 226.941 88.5625C226.208 89.3487 225.269 89.742 224.118 89.742C222.963 89.742 222.021 89.3487 221.288 88.5625C220.556 87.7763 220.189 86.8584 220.189 85.8071C220.189 84.7658 220.536 83.8619 221.228 83.0963C221.992 82.2521 222.953 81.83 224.118 81.83Z" fill="#1B1918" stroke="#1B1918" stroke-width="0.65" stroke-linecap="round" stroke-linejoin="round"/>
<path fill-rule="evenodd" clip-rule="evenodd" d="M154.284 85.025C154.157 84.5086 153.967 84.0961 153.719 83.7875C153.474 83.4789 153.148 83.23 152.742 83.04C152.335 82.8515 151.907 82.7568 151.458 82.7568C150.722 82.7568 150.085 82.9941 149.554 83.4693C149.167 83.8153 148.874 84.3344 148.675 85.025H154.284ZM154.284 87.0521L155.102 87.4804C154.832 88.0053 154.522 88.4302 154.173 88.7532C153.823 89.0758 153.429 89.3217 152.99 89.4883C152.55 89.6577 152.053 89.7413 151.501 89.7413C150.273 89.7413 149.314 89.3385 148.62 88.5341C147.929 87.7297 147.584 86.82 147.584 85.8064C147.584 84.8518 147.877 84.0015 148.463 83.254C149.205 82.3046 150.199 81.8293 151.446 81.8293C152.73 81.8293 153.753 82.3166 154.517 83.2893C155.064 83.9761 155.34 84.834 155.35 85.862H148.578C148.598 86.7353 148.876 87.4526 149.418 88.0115C149.956 88.5704 150.625 88.8499 151.418 88.8499C151.801 88.8499 152.174 88.782 152.536 88.6503C152.899 88.5173 153.206 88.3393 153.459 88.1205C153.714 87.899 153.989 87.5435 154.284 87.0521Z" fill="#1B1918" stroke="#1B1918" stroke-width="0.65" stroke-linecap="round" stroke-linejoin="round"/>
<path fill-rule="evenodd" clip-rule="evenodd" d="M157.009 79.1199H157.978V89.548H157.009V79.1199Z" fill="#1B1918" stroke="#1B1918" stroke-width="0.65" stroke-linecap="round" stroke-linejoin="round"/>
<path fill-rule="evenodd" clip-rule="evenodd" d="M163.616 82.764C163.078 82.764 162.581 82.896 162.125 83.1607C161.669 83.4258 161.305 83.7971 161.036 84.2772C160.767 84.7551 160.631 85.2619 160.631 85.7965C160.631 86.3252 160.768 86.832 161.04 87.3158C161.313 87.7996 161.676 88.1771 162.134 88.4456C162.592 88.7154 163.085 88.8495 163.608 88.8495C164.138 88.8495 164.641 88.7165 165.116 88.4494C165.589 88.1819 165.955 87.8202 166.211 87.3641C166.464 86.9095 166.592 86.3955 166.592 85.8232C166.592 84.9547 166.307 84.2264 165.733 83.6421C165.16 83.0555 164.454 82.764 163.616 82.764ZM167.485 82.0237V89.5476H166.531V88.2546C166.124 88.748 165.671 89.1194 165.165 89.3686C164.66 89.6179 164.109 89.7424 163.509 89.7424C162.444 89.7424 161.534 89.3553 160.78 88.5834C160.027 87.8119 159.649 86.8718 159.649 85.7653C159.649 84.6814 160.029 83.7546 160.79 82.9855C161.551 82.2151 162.468 81.8304 163.538 81.8304C164.154 81.8304 164.714 81.962 165.212 82.2247C165.713 82.487 166.154 82.8813 166.531 83.4062V82.0237H167.485Z" fill="#1B1918" stroke="#1B1918" stroke-width="0.65" stroke-linecap="round" stroke-linejoin="round"/>
<path fill-rule="evenodd" clip-rule="evenodd" d="M173.446 82.8467L172.824 83.4903C172.306 82.9869 171.8 82.7356 171.306 82.7356C170.992 82.7356 170.722 82.8395 170.497 83.0476C170.273 83.2543 170.162 83.4964 170.162 83.7745C170.162 84.0176 170.254 84.2511 170.439 84.4723C170.623 84.6975 171.01 84.9636 171.604 85.2671C172.324 85.6408 172.814 86.0002 173.073 86.3461C173.325 86.6969 173.454 87.0912 173.454 87.5291C173.454 88.1473 173.236 88.6685 172.802 89.0981C172.368 89.5264 171.826 89.7413 171.173 89.7413C170.742 89.7413 170.326 89.6471 169.931 89.4585C169.537 89.2699 169.21 89.0086 168.95 88.6757L169.56 87.9851C170.053 88.5426 170.578 88.821 171.134 88.821C171.521 88.821 171.852 88.6976 172.125 88.4483C172.398 88.1994 172.534 87.9076 172.534 87.5702C172.534 87.2932 172.445 87.0477 172.262 86.8299C172.083 86.6184 171.677 86.3499 171.044 86.0279C170.365 85.6785 169.902 85.3326 169.656 84.99C169.413 84.6492 169.29 84.2597 169.29 83.8228C169.29 83.2506 169.485 82.7753 169.877 82.3978C170.266 82.0193 170.757 81.8293 171.355 81.8293C172.048 81.8293 172.745 82.1681 173.446 82.8467Z" fill="#1B1918" stroke="#1B1918" stroke-width="0.65" stroke-linecap="round" stroke-linejoin="round"/>
<path fill-rule="evenodd" clip-rule="evenodd" d="M178.273 82.0234H179.299L181.883 87.8174L184.395 82.0234H185.425L180.936 92.3003H179.915L181.364 88.9788L178.273 82.0234Z" fill="#1B1918" stroke="#1B1918" stroke-width="0.65" stroke-linecap="round" stroke-linejoin="round"/>
<path fill-rule="evenodd" clip-rule="evenodd" d="M138.127 76.5517V75.1414H184.87V76.5517H145.065V89.548H144.029V76.5517H138.127Z" fill="#1B1918" stroke="#1B1918" stroke-width="0.65" stroke-linecap="round" stroke-linejoin="round"/>
<path fill-rule="evenodd" clip-rule="evenodd" d="M186.788 76.5517V75.1414H233.529V76.5517H193.726V89.548H192.687V76.5517H186.788Z" fill="#1B1918" stroke="#1B1918" stroke-width="0.65" stroke-linecap="round" stroke-linejoin="round"/>
<path fill-rule="evenodd" clip-rule="evenodd" d="M144.787 72.793C141.354 72.793 138.54 70.0362 138.54 66.5467V34.7505C138.54 33.4006 139.667 32.2745 141.016 32.2745V33.512C140.34 33.512 139.778 34.0743 139.778 34.7505V66.5467C139.778 69.3031 142.03 71.5555 144.787 71.5555C147.263 71.5555 149.29 69.7533 149.684 67.3909C149.514 66.9396 149.065 66.5467 148.5 66.5467V65.3092C149.739 65.3092 150.696 66.152 150.978 67.334C150.584 70.4295 147.994 72.793 144.787 72.793Z" fill="#1B1918" stroke="#1B1918" stroke-width="0.65" stroke-linecap="round" stroke-linejoin="round"/>
<path fill-rule="evenodd" clip-rule="evenodd" d="M144.787 72.793C141.354 72.793 138.54 70.0362 138.54 66.5467V34.7505C138.54 33.4006 139.667 32.2745 141.016 32.2745V33.512C140.34 33.512 139.778 34.0743 139.778 34.7505V66.5467C139.778 69.3031 142.03 71.5555 144.787 71.5555C147.263 71.5555 149.29 69.7533 149.684 67.3909C149.514 66.9396 149.065 66.5467 148.5 66.5467V65.3092C149.739 65.3092 150.696 66.152 150.978 67.334C150.584 70.4295 147.994 72.793 144.787 72.793Z" fill="#1B1918" stroke="#1B1918" stroke-width="0.65" stroke-linecap="round" stroke-linejoin="round"/>
<path fill-rule="evenodd" clip-rule="evenodd" d="M165.778 66.6033C165.778 70.0359 163.019 72.7927 159.586 72.7927C157.504 72.7927 155.704 71.836 154.577 70.3167C154.577 71.6677 153.453 72.7927 152.101 72.7927V71.5552C152.777 71.5552 153.339 70.9915 153.339 70.3167V41.5595H154.577V66.6033C154.577 69.3031 156.829 71.5552 159.586 71.5552C162.288 71.5552 164.54 69.3031 164.54 66.6033V43.923C164.483 43.3037 163.921 42.798 163.299 42.798V41.5595C164.65 41.5595 165.721 42.6299 165.778 43.923V66.6033Z" fill="#1B1918" stroke="#1B1918" stroke-width="0.65" stroke-linecap="round" stroke-linejoin="round"/>
<path fill-rule="evenodd" clip-rule="evenodd" d="M165.778 66.6033C165.778 70.0359 163.019 72.7927 159.586 72.7927C157.504 72.7927 155.704 71.836 154.577 70.3167C154.577 71.6677 153.453 72.7927 152.101 72.7927V71.5552C152.777 71.5552 153.339 70.9915 153.339 70.3167V41.5595H154.577V66.6033C154.577 69.3031 156.829 71.5552 159.586 71.5552C162.288 71.5552 164.54 69.3031 164.54 66.6033V43.923C164.483 43.3037 163.921 42.798 163.299 42.798V41.5595C164.65 41.5595 165.721 42.6299 165.778 43.923V66.6033Z" fill="#1B1918" stroke="#1B1918" stroke-width="0.65" stroke-linecap="round" stroke-linejoin="round"/>
<path fill-rule="evenodd" clip-rule="evenodd" d="M179.223 66.6033H180.463C180.463 70.0359 177.704 72.7927 174.271 72.7927C170.781 72.7927 168.024 70.0359 168.024 66.6033V47.8071C168.024 44.3728 170.781 41.5595 174.271 41.5595C177.423 41.5595 180.069 43.923 180.407 47.0195C180.18 48.1432 179.169 49.0443 177.986 49.0443V47.8071C178.549 47.8071 178.998 47.4125 179.169 46.9626C178.774 44.5991 176.692 42.798 174.271 42.798C171.514 42.798 169.263 45.049 169.263 47.8071V66.6033C169.263 69.3031 171.514 71.5552 174.271 71.5552C177.029 71.5552 179.223 69.3031 179.223 66.6033Z" fill="#1B1918" stroke="#1B1918" stroke-width="0.65" stroke-linecap="round" stroke-linejoin="round"/>
<path fill-rule="evenodd" clip-rule="evenodd" d="M179.223 66.6033H180.463C180.463 70.0359 177.704 72.7927 174.271 72.7927C170.781 72.7927 168.024 70.0359 168.024 66.6033V47.8071C168.024 44.3728 170.781 41.5595 174.271 41.5595C177.423 41.5595 180.069 43.923 180.407 47.0195C180.18 48.1432 179.169 49.0443 177.986 49.0443V47.8071C178.549 47.8071 178.998 47.4125 179.169 46.9626C178.774 44.5991 176.692 42.798 174.271 42.798C171.514 42.798 169.263 45.049 169.263 47.8071V66.6033C169.263 69.3031 171.514 71.5552 174.271 71.5552C177.029 71.5552 179.223 69.3031 179.223 66.6033Z" fill="#1B1918" stroke="#1B1918" stroke-width="0.65" stroke-linecap="round" stroke-linejoin="round"/>
<path fill-rule="evenodd" clip-rule="evenodd" d="M184.623 35.4815H183.386V31.8806C184.061 31.8806 184.623 32.4429 184.623 33.1191V35.4815ZM185.861 71.5548V72.7933C185.412 72.7933 185.018 72.6809 184.623 72.4546C183.893 72.0047 183.386 71.2171 183.386 70.3174V44.0361C183.386 43.361 182.824 42.7986 182.147 42.7986V41.5588C182.599 41.5588 183.047 41.6723 183.386 41.8976C184.118 42.3474 184.623 43.1347 184.623 44.0361V70.3174C184.623 70.9911 185.189 71.5548 185.861 71.5548Z" fill="#1B1918" stroke="#1B1918" stroke-width="0.65" stroke-linecap="round" stroke-linejoin="round"/>
<path fill-rule="evenodd" clip-rule="evenodd" d="M184.623 35.4815H183.386V31.8806C184.061 31.8806 184.623 32.4429 184.623 33.1191V35.4815ZM185.861 71.5548V72.7933C185.412 72.7933 185.018 72.6809 184.623 72.4546C183.893 72.0047 183.386 71.2171 183.386 70.3174V44.0361C183.386 43.361 182.824 42.7986 182.147 42.7986V41.5588C182.599 41.5588 183.047 41.6723 183.386 41.8976C184.118 42.3474 184.623 43.1347 184.623 44.0361V70.3174C184.623 70.9911 185.189 71.5548 185.861 71.5548Z" fill="#1B1918" stroke="#1B1918" stroke-width="0.65" stroke-linecap="round" stroke-linejoin="round"/>
<path fill-rule="evenodd" clip-rule="evenodd" d="M199.312 60.3556C199.312 57.5988 197.061 55.3464 194.303 55.3464C191.603 55.3464 189.352 57.5988 189.352 60.3556V66.6033C189.352 69.3031 191.603 71.5552 194.303 71.5552C197.061 71.5552 199.312 69.3031 199.312 66.6033V60.3556ZM201.788 71.5552V72.7927C200.437 72.7927 199.312 71.6677 199.312 70.3167C198.187 71.836 196.385 72.7927 194.303 72.7927C190.87 72.7927 188.113 70.0359 188.113 66.6033V60.3556C188.113 56.9227 190.87 54.109 194.303 54.109C196.385 54.109 198.187 55.1229 199.312 56.6419V47.8071C199.312 45.049 197.061 42.798 194.303 42.798C191.884 42.798 189.801 44.5991 189.408 46.9626C189.576 47.4125 190.027 47.8071 190.59 47.8071V49.0443C189.408 49.0443 188.395 48.2001 188.17 47.0751C188.505 43.9799 191.152 41.5595 194.303 41.5595C197.793 41.5595 200.549 44.3728 200.549 47.8071V70.3167C200.549 70.9915 201.112 71.5552 201.788 71.5552Z" fill="#1B1918" stroke="#1B1918" stroke-width="0.65" stroke-linecap="round" stroke-linejoin="round"/>
<path fill-rule="evenodd" clip-rule="evenodd" d="M199.312 60.3556C199.312 57.5988 197.061 55.3464 194.303 55.3464C191.603 55.3464 189.352 57.5988 189.352 60.3556V66.6033C189.352 69.3031 191.603 71.5552 194.303 71.5552C197.061 71.5552 199.312 69.3031 199.312 66.6033V60.3556ZM201.788 71.5552V72.7927C200.437 72.7927 199.312 71.6677 199.312 70.3167C198.187 71.836 196.385 72.7927 194.303 72.7927C190.87 72.7927 188.113 70.0359 188.113 66.6033V60.3556C188.113 56.9227 190.87 54.109 194.303 54.109C196.385 54.109 198.187 55.1229 199.312 56.6419V47.8071C199.312 45.049 197.061 42.798 194.303 42.798C191.884 42.798 189.801 44.5991 189.408 46.9626C189.576 47.4125 190.027 47.8071 190.59 47.8071V49.0443C189.408 49.0443 188.395 48.2001 188.17 47.0751C188.505 43.9799 191.152 41.5595 194.303 41.5595C197.793 41.5595 200.549 44.3728 200.549 47.8071V70.3167C200.549 70.9915 201.112 71.5552 201.788 71.5552Z" fill="#1B1918" stroke="#1B1918" stroke-width="0.65" stroke-linecap="round" stroke-linejoin="round"/>
<path fill-rule="evenodd" clip-rule="evenodd" d="M216.587 70.4292C216.53 71.7235 215.462 72.793 214.111 72.793V71.5555C214.787 71.5555 215.349 70.9918 215.349 70.3167V47.8071C215.349 45.0493 213.097 42.798 210.397 42.798C207.641 42.798 205.388 45.0493 205.388 47.8071V72.793H204.151V44.0368C204.151 43.3606 203.588 42.798 202.912 42.798V41.5595C204.262 41.5595 205.388 42.6845 205.388 44.0368C206.513 42.573 208.313 41.5595 210.397 41.5595C213.83 41.5595 216.587 44.3728 216.587 47.8071V70.4292Z" fill="#1B1918"/>
<path d="M214.111 72.793C215.462 72.793 216.53 71.7235 216.587 70.4292V47.8071C216.587 44.3728 213.83 41.5595 210.397 41.5595C208.313 41.5595 206.513 42.573 205.388 44.0368C205.388 42.6845 204.262 41.5595 202.912 41.5595V42.798C203.588 42.798 204.151 43.3606 204.151 44.0368V72.793H205.388V47.8071C205.388 45.0493 207.641 42.798 210.397 42.798C213.097 42.798 215.349 45.0493 215.349 47.8071V70.3167C215.349 70.9918 214.787 71.5555 214.111 71.5555V72.793ZM214.111 72.793H214.168" stroke="#1B1918" stroke-width="0.65" stroke-linecap="round" stroke-linejoin="round"/>
<path fill-rule="evenodd" clip-rule="evenodd" d="M216.587 70.4292C216.53 71.7235 215.462 72.793 214.111 72.793V71.5555C214.787 71.5555 215.349 70.9918 215.349 70.3167V47.8071C215.349 45.0493 213.097 42.798 210.397 42.798C207.641 42.798 205.388 45.0493 205.388 47.8071V72.793H204.151V44.0368C204.151 43.3606 203.588 42.798 202.912 42.798V41.5595C204.262 41.5595 205.388 42.6845 205.388 44.0368C206.513 42.573 208.313 41.5595 210.397 41.5595C213.83 41.5595 216.587 44.3728 216.587 47.8071V70.4292Z" fill="#1B1918"/>
<path d="M214.111 72.793C215.462 72.793 216.53 71.7235 216.587 70.4292V47.8071C216.587 44.3728 213.83 41.5595 210.397 41.5595C208.313 41.5595 206.513 42.573 205.388 44.0368C205.388 42.6845 204.262 41.5595 202.912 41.5595V42.798C203.588 42.798 204.151 43.3606 204.151 44.0368V72.793H205.388V47.8071C205.388 45.0493 207.641 42.798 210.397 42.798C213.097 42.798 215.349 45.0493 215.349 47.8071V70.3167C215.349 70.9918 214.787 71.5555 214.111 71.5555V72.793ZM214.111 72.793H214.168" stroke="#1B1918" stroke-width="0.65" stroke-linecap="round" stroke-linejoin="round"/>
<path fill-rule="evenodd" clip-rule="evenodd" d="M230.034 60.3556C230.034 57.5988 227.782 55.3464 225.025 55.3464C222.325 55.3464 220.074 57.5988 220.074 60.3556V66.6033C220.074 69.3031 222.325 71.5552 225.025 71.5552C227.782 71.5552 230.034 69.3031 230.034 66.6033V60.3556ZM232.51 71.5552V72.7927C231.159 72.7927 230.034 71.6677 230.034 70.3167C228.909 71.836 227.106 72.7927 225.025 72.7927C221.592 72.7927 218.835 70.0359 218.835 66.6033V60.3556C218.835 56.9227 221.592 54.109 225.025 54.109C227.106 54.109 228.909 55.1229 230.034 56.6419V47.8071C230.034 45.049 227.782 42.798 225.025 42.798C222.605 42.798 220.522 44.5991 220.129 46.9626C220.297 47.4125 220.749 47.8071 221.311 47.8071V49.0443C220.129 49.0443 219.117 48.2001 218.892 47.0751C219.227 43.9799 221.874 41.5595 225.025 41.5595C228.515 41.5595 231.271 44.3728 231.271 47.8071V70.3167C231.271 70.9915 231.834 71.5552 232.51 71.5552Z" fill="#1B1918" stroke="#1B1918" stroke-width="0.65" stroke-linecap="round" stroke-linejoin="round"/>
<path fill-rule="evenodd" clip-rule="evenodd" d="M230.034 60.3556C230.034 57.5988 227.782 55.3464 225.025 55.3464C222.325 55.3464 220.074 57.5988 220.074 60.3556V66.6033C220.074 69.3031 222.325 71.5552 225.025 71.5552C227.782 71.5552 230.034 69.3031 230.034 66.6033V60.3556ZM232.51 71.5552V72.7927C231.159 72.7927 230.034 71.6677 230.034 70.3167C228.909 71.836 227.106 72.7927 225.025 72.7927C221.592 72.7927 218.835 70.0359 218.835 66.6033V60.3556C218.835 56.9227 221.592 54.109 225.025 54.109C227.106 54.109 228.909 55.1229 230.034 56.6419V47.8071C230.034 45.049 227.782 42.798 225.025 42.798C222.605 42.798 220.522 44.5991 220.129 46.9626C220.297 47.4125 220.749 47.8071 221.311 47.8071V49.0443C220.129 49.0443 219.117 48.2001 218.892 47.0751C219.227 43.9799 221.874 41.5595 225.025 41.5595C228.515 41.5595 231.271 44.3728 231.271 47.8071V70.3167C231.271 70.9915 231.834 71.5552 232.51 71.5552Z" fill="#1B1918" stroke="#1B1918" stroke-width="0.65" stroke-linecap="round" stroke-linejoin="round"/>
<path fill-rule="evenodd" clip-rule="evenodd" d="M16.3252 83.8876L95.0504 49.6422C95.0504 49.6422 113.042 47.8084 116.446 68.9321L49.3476 97.2964C49.3476 97.2964 37.7207 79.0238 16.3252 83.8876Z" fill="#E2E3E4"/>
<path fill-rule="evenodd" clip-rule="evenodd" d="M51.2899 107.018C51.2899 120.983 39.9713 132.3 26.0078 132.3C12.0452 132.3 0.725586 120.983 0.725586 107.018C0.725586 93.0566 12.0452 81.737 26.0078 81.737C39.9713 81.737 51.2899 93.0566 51.2899 107.018Z" fill="#E2E3E4"/>
<path fill-rule="evenodd" clip-rule="evenodd" d="M35.7325 107.018C35.7325 112.391 31.3779 116.746 26.0083 116.746C20.6374 116.746 16.2852 112.391 16.2852 107.018C16.2852 101.65 20.6374 97.2964 26.0083 97.2964C31.3779 97.2964 35.7325 101.65 35.7325 107.018Z" fill="#E2E3E4"/>
<path fill-rule="evenodd" clip-rule="evenodd" d="M49.3477 137.166H76.5764C76.5764 137.166 100.596 123.564 112.556 128.02C124.205 132.362 125.199 139.106 142.703 132.301C160.209 125.497 184.522 125.685 192.3 128.02C192.3 128.02 204.944 125.492 224.391 108.963C243.841 92.4312 252.591 97.296 252.591 97.296C252.591 97.296 221.471 88.9595 202.996 98.4755C184.521 107.993 182.574 96.3188 182.574 96.3188C182.574 96.3188 173.822 90.9047 159.234 98.4755C144.647 106.049 133.952 97.296 133.952 97.296L49.3477 137.166Z" fill="#BBBDBF"/>
<path fill-rule="evenodd" clip-rule="evenodd" d="M65.0978 129.744L133.952 97.2964C133.952 97.2964 148.538 71.6889 116.447 68.9324L48.4971 96.3383C48.4971 96.3383 78.642 100.962 65.0978 129.744Z" fill="#BBBDBF"/>
<path fill-rule="evenodd" clip-rule="evenodd" d="M69.7696 116.746C69.7696 128.021 60.6259 137.166 49.3475 137.166C38.068 137.166 28.9219 128.021 28.9219 116.746C28.9219 105.461 38.068 96.3191 49.3475 96.3191C60.6259 96.3191 69.7696 105.461 69.7696 116.746Z" fill="#BBBDBF"/>
<path fill-rule="evenodd" clip-rule="evenodd" d="M57.1277 116.746C57.1277 121.041 53.644 124.524 49.345 124.524C45.0487 124.524 41.5674 121.041 41.5674 116.746C41.5674 112.444 45.0487 108.962 49.345 108.962C53.644 108.962 57.1277 112.444 57.1277 116.746Z" fill="#BBBDBF"/>
<path d="M49.3477 137.166H76.5764C76.5764 137.166 100.596 123.564 112.556 128.02C124.205 132.362 125.199 139.106 142.703 132.301C160.209 125.497 184.522 125.685 192.3 128.02C192.3 128.02 204.944 125.492 224.391 108.963C243.841 92.4312 252.591 97.296 252.591 97.296C252.591 97.296 221.471 88.9595 202.996 98.4755C184.521 107.993 182.574 96.3188 182.574 96.3188C182.574 96.3188 173.822 90.9047 159.234 98.4755C144.647 106.049 133.952 97.296 133.952 97.296L49.3477 137.166Z" stroke="white" stroke-width="1.0001" stroke-linecap="round" stroke-linejoin="round"/>
<path d="M16.3252 83.8876L95.0504 49.6422C95.0504 49.6422 113.042 47.8084 116.446 68.9321L49.3476 97.2964C49.3476 97.2964 37.7207 79.0238 16.3252 83.8876Z" stroke="white" stroke-width="1.0001" stroke-linecap="round" stroke-linejoin="round"/>
<path d="M51.2899 107.018C51.2899 120.983 39.9713 132.3 26.0078 132.3C12.0452 132.3 0.725586 120.983 0.725586 107.018C0.725586 93.0566 12.0452 81.737 26.0078 81.737C39.9713 81.737 51.2899 93.0566 51.2899 107.018Z" stroke="white" stroke-width="1.0001" stroke-linecap="round" stroke-linejoin="round"/>
<path d="M35.7325 107.018C35.7325 112.391 31.3779 116.746 26.0083 116.746C20.6374 116.746 16.2852 112.391 16.2852 107.018C16.2852 101.65 20.6374 97.2964 26.0083 97.2964C31.3779 97.2964 35.7325 101.65 35.7325 107.018Z" stroke="white" stroke-width="1.0001" stroke-linecap="round" stroke-linejoin="round"/>
<path d="M65.0978 129.744L133.952 97.2964C133.952 97.2964 148.538 71.6889 116.447 68.9324L48.4971 96.3383C48.4971 96.3383 78.642 100.962 65.0978 129.744Z" stroke="white" stroke-width="1.0001" stroke-linecap="round" stroke-linejoin="round"/>
<path d="M69.7696 116.746C69.7696 128.021 60.6259 137.166 49.3475 137.166C38.068 137.166 28.9219 128.021 28.9219 116.746C28.9219 105.461 38.068 96.3191 49.3475 96.3191C60.6259 96.3191 69.7696 105.461 69.7696 116.746Z" stroke="white" stroke-width="1.0001" stroke-linecap="round" stroke-linejoin="round"/>
<path d="M57.1277 116.746C57.1277 121.041 53.644 124.524 49.345 124.524C45.0487 124.524 41.5674 121.041 41.5674 116.746C41.5674 112.444 45.0487 108.962 49.345 108.962C53.644 108.962 57.1277 112.444 57.1277 116.746Z" stroke="white" stroke-width="1.0001" stroke-linecap="round" stroke-linejoin="round"/>
<path fill-rule="evenodd" clip-rule="evenodd" d="M128.237 95.4719H102.5V89.517H128.237V95.4719Z" fill="#003A81" stroke="white" stroke-width="1.0001"/>
<path fill-rule="evenodd" clip-rule="evenodd" d="M124.268 18.145H112.272V13.321H124.268V18.145Z" fill="#003A81" stroke="white" stroke-width="1.0001"/>
<path fill-rule="evenodd" clip-rule="evenodd" d="M108.154 18.9854L97.8516 86.4469C97.8516 86.4469 112.271 99.5992 133.903 86.4469L128.237 18.9854C128.237 18.9854 114.848 15.382 108.154 18.9854Z" fill="#1C4486"/>
<path fill-rule="evenodd" clip-rule="evenodd" d="M108.154 18.9854L97.8516 86.4469C97.8516 86.4469 112.271 99.5992 133.903 86.4469L128.237 18.9854C128.237 18.9854 114.848 15.382 108.154 18.9854Z" fill="#003A81" stroke="white" stroke-width="1.0001"/>
<path fill-rule="evenodd" clip-rule="evenodd" d="M106.938 27.636L129.371 32.4854Z" fill="#1C4486"/>
<path d="M106.938 27.636L129.371 32.4854" stroke="white" stroke-width="0.5"/>
<path fill-rule="evenodd" clip-rule="evenodd" d="M106.026 32.915L129.864 37.9036Z" fill="#1C4486"/>
<path d="M106.026 32.915L129.864 37.9036" stroke="white" stroke-width="0.5"/>
<path fill-rule="evenodd" clip-rule="evenodd" d="M111.653 28.6235L128.803 25.7251Z" fill="#1C4486"/>
<path d="M111.653 28.6235L128.803 25.7251" stroke="white" stroke-width="0.5"/>
<path fill-rule="evenodd" clip-rule="evenodd" d="M104.273 44.3909L119.121 39.8669Z" fill="#1C4486"/>
<path d="M104.273 44.3909L119.121 39.8669" stroke="white" stroke-width="0.5"/>
<path fill-rule="evenodd" clip-rule="evenodd" d="M102.164 58.206L130.559 49.8075Z" fill="#1C4486"/>
<path d="M102.164 58.206L130.559 49.8075" stroke="white" stroke-width="0.5"/>
<path fill-rule="evenodd" clip-rule="evenodd" d="M101.256 64.1571L131.276 55.1818Z" fill="#1C4486"/>
<path d="M101.256 64.1571L131.276 55.1818" stroke="white" stroke-width="0.5"/>
<path fill-rule="evenodd" clip-rule="evenodd" d="M105.685 62.8329L132.393 68.4805Z" fill="#1C4486"/>
<path d="M105.685 62.8329L132.393 68.4805" stroke="white" stroke-width="0.5"/>
<path fill-rule="evenodd" clip-rule="evenodd" d="M100.596 68.4805L132.941 74.9857Z" fill="#1C4486"/>
<path d="M100.596 68.4805L132.941 74.9857" stroke="white" stroke-width="0.5"/>
<path fill-rule="evenodd" clip-rule="evenodd" d="M99.7559 73.9793L133.544 82.1828Z" fill="#1C4486"/>
<path d="M99.7559 73.9793L133.544 82.1828" stroke="white" stroke-width="0.5"/>
<path fill-rule="evenodd" clip-rule="evenodd" d="M99.7559 87.8626L124.953 80.1406Z" fill="#1C4486"/>
<path d="M99.7559 87.8626L124.953 80.1406" stroke="white" stroke-width="0.5"/>
<path fill-rule="evenodd" clip-rule="evenodd" d="M105.685 37.6814L130.233 41.6743Z" fill="#1C4486"/>
<path d="M105.685 37.6814L130.233 41.6743" stroke="white" stroke-width="0.5"/>
<path fill-rule="evenodd" clip-rule="evenodd" d="M103.516 52.0338L130.234 41.6746Z" fill="#1C4486"/>
<path d="M103.516 52.0338L130.234 41.6746" stroke="white" stroke-width="0.5"/>
<path fill-rule="evenodd" clip-rule="evenodd" d="M110.071 107.27H76.7725V99.5666H110.071V107.27Z" fill="#E94D11" stroke="white" stroke-width="1.0001"/>
<path fill-rule="evenodd" clip-rule="evenodd" d="M104.933 7.22931H89.4141V0.987793H104.933V7.22931Z" fill="#E94D11" stroke="white" stroke-width="1.0001"/>
<path fill-rule="evenodd" clip-rule="evenodd" d="M84.0874 8.31619L70.7598 95.595C70.7598 95.595 89.4154 112.609 117.399 95.595L110.07 8.31619C110.07 8.31619 92.7479 3.65579 84.0874 8.31619Z" fill="#ED6812"/>
<path fill-rule="evenodd" clip-rule="evenodd" d="M84.0874 8.31619L70.7598 95.595C70.7598 95.595 89.4154 112.609 117.399 95.595L110.07 8.31619C110.07 8.31619 92.7479 3.65579 84.0874 8.31619Z" fill="#E94D11" stroke="white" stroke-width="1.0001"/>
<path fill-rule="evenodd" clip-rule="evenodd" d="M82.5137 19.51L111.536 25.783Z" fill="#63A8D7"/>
<path d="M82.5137 19.51L111.536 25.783" stroke="white" stroke-width="0.5"/>
<path fill-rule="evenodd" clip-rule="evenodd" d="M81.335 26.3388L112.174 32.7922Z" fill="#63A8D7"/>
<path d="M81.335 26.3388L112.174 32.7922" stroke="white" stroke-width="0.5"/>
<path fill-rule="evenodd" clip-rule="evenodd" d="M88.6152 20.7869L110.802 17.0361Z" fill="#63A8D7"/>
<path d="M88.6152 20.7869L110.802 17.0361" stroke="white" stroke-width="0.5"/>
<path fill-rule="evenodd" clip-rule="evenodd" d="M79.0674 41.1864L98.2774 35.333Z" fill="#63A8D7"/>
<path d="M79.0674 41.1864L98.2774 35.333" stroke="white" stroke-width="0.5"/>
<path fill-rule="evenodd" clip-rule="evenodd" d="M76.3389 59.0577L113.075 48.1928Z" fill="#63A8D7"/>
<path d="M76.3389 59.0577L113.075 48.1928" stroke="white" stroke-width="0.5"/>
<path fill-rule="evenodd" clip-rule="evenodd" d="M75.1631 66.7558L114.001 55.1448Z" fill="#63A8D7"/>
<path d="M75.1631 66.7558L114.001 55.1448" stroke="white" stroke-width="0.5"/>
<path fill-rule="evenodd" clip-rule="evenodd" d="M80.8936 65.0431L115.446 72.3503Z" fill="#63A8D7"/>
<path d="M80.8936 65.0431L115.446 72.3503" stroke="white" stroke-width="0.5"/>
<path fill-rule="evenodd" clip-rule="evenodd" d="M74.3096 72.3503L116.154 80.7667Z" fill="#63A8D7"/>
<path d="M74.3096 72.3503L116.154 80.7667" stroke="white" stroke-width="0.5"/>
<path fill-rule="evenodd" clip-rule="evenodd" d="M73.2227 79.4651L116.936 90.0783Z" fill="#63A8D7"/>
<path d="M73.2227 79.4651L116.936 90.0783" stroke="white" stroke-width="0.5"/>
<path fill-rule="evenodd" clip-rule="evenodd" d="M73.2227 97.4249L105.819 87.4347Z" fill="#63A8D7"/>
<path d="M73.2227 97.4249L105.819 87.4347" stroke="white" stroke-width="0.5"/>
<path fill-rule="evenodd" clip-rule="evenodd" d="M80.8936 32.5052L112.652 37.6715Z" fill="#63A8D7"/>
<path d="M80.8936 32.5052L112.652 37.6715" stroke="white" stroke-width="0.5"/>
<path fill-rule="evenodd" clip-rule="evenodd" d="M78.0869 51.0734L112.653 37.6708Z" fill="#63A8D7"/>
<path d="M78.0869 51.0734L112.653 37.6708" stroke="white" stroke-width="0.5"/>
</svg>
